/* XPM */
static char *result[] = {
/* columns rows colors chars-per-pixel */
"64 64 6 1 ",
"  c #25102E",
". c #2F1638",
"X c #3A1945",
"o c #4E2E5E",
"O c #5F406F",
"+ c None",
/* pixels */
"++++++++++++++++++++++++++++++++++++++++++++++++++++++++++++++++",
"++++++++++++++++++++++++++++++++++++++++++++++++++++++++++++++++",
"++++++++++++++++++++++++++++++++++++++++++++++++++++++++++++++++",
"++++++++++++++++++++++++++++++++++++++++++++++++++++++++++++++++",
"++++++++++++++++++++++++++++++++++++++++++++++++++++++++++++++++",
"++++++++++++++++++++++++++++++++++++++++++++++++++++++++++++++++",
"++++++++++++++++++++++++++++++++++++++++++++++++++++++++++++++++",
"++++++++++++++++++++++++++++++++++++++++++++++++++++++++++++++++",
"++++++++++++++++++++++++++++++++++++++++++++++++++++++++++++++++",
"++++++++++++++++++++++++++++++++++++++++++++++++++++++++++++++++",
"++++++++++++++++++++++++++++++++++++++++++++++++++++++++++++++++",
"++++++++++++++++++++++++++++++++++++++++++++++++++++++++++++++++",
"++++++++++++++++++++++++++++++++++++++++++++++++++++++++++++++++",
"++++++++++++++++++++++++++++++++++++++++++++++++++++++++++++++++",
"++++++++++++++++++++++++++++++++++++++++++++++++++++++++++++++++",
"++++++++++++++++++++++++++++++++++++++++++++++++++++++++++++++++",
"++++++++++++++++++++++++++++++++++++++++++++++++++++++++++++++++",
"++++++++++++++++++++++++++++++++++++++++++++++++++++++++++++++++",
"++++++++++++++++++++++++++++++++++++++++++++++++++++++++++++++++",
"++++++++++++++++++++++++++++++++++++++++++++++++++++++++++++++++",
"++++++++++++++++++++++++++++++++++++++++oo++++++++++++++++++++++",
"++++++++++++++++++++++++++++++++++++++++oo++++++++++++++++++++++",
"++++++++++++++++++++++++++++++++++++++..oo++++++++++++++++++++++",
"++++++++++++++++++++++++++++++++++++++..oo++++++++++++++++++++++",
"++++++++++++++++++++++++++++++++++++  ..XXoo++++++++++++++++++++",
"++++++++++++++++++++++++++++++++++++  ..XXoo++++++++++++++++++++",
"++++++++++++++++++++++++++XXXXXX++    ..XXXXoo++++++++++++++++++",
"++++++++++++++++++++++++++XXXXXX++    ..XXXXoo++++++++++++++++++",
"++++++++++++++++++++OOOOOOooooOOXXXX..XXXXXXoooo++++++++++++++++",
"++++++++++++++++++++OOOOOOooooOOXXXX..XXXXXXoooo++++++++++++++++",
"++++++++++++++OOOOOOOOooooooOOOOOO    ..XXXXXXoo++++++++++++++++",
"++++++++++++++OOOOOOOOooooooOOOOOO    ..XXXXXXoo++++++++++++++++",
"++++++++++++++    ooooooOOOOOO..............oo++++++++++++++++++",
"++++++++++++++    ooooooOOOOOO..............oo++++++++++++++++++",
"++++++++++++++++      OOOO  ..XXXXXXXX..++++XXoo++++++++++++++++",
"++++++++++++++++      OOOO  ..XXXXXXXX..++++XXoo++++++++++++++++",
"++++++++++++++++++        ..XXXXXXXX..++++++++++++++++++++++++++",
"++++++++++++++++++        ..XXXXXXXX..++++++++++++++++++++++++++",
"++++++++++++++++++++++    ..XXXXXXXX++++++++++++++++++++++++++++",
"++++++++++++++++++++++    ..XXXXXXXX++++++++++++++++++++++++++++",
"++++++++++++++++++++++++++  ....XX++++++++++++++++++++++++++++++",
"++++++++++++++++++++++++++  ....XX++++++++++++++++++++++++++++++",
"++++++++++++++++++++++++++++++++++++++++++++++++++++++++++++++++",
"++++++++++++++++++++++++++++++++++++++++++++++++++++++++++++++++",
"++++++++++++++++++++++++++++++++++++++++++++++++++++++++++++++++",
"++++++++++++++++++++++++++++++++++++++++++++++++++++++++++++++++",
"++++++++++++++++++++++++++++++++++++++++++++++++++++++++++++++++",
"++++++++++++++++++++++++++++++++++++++++++++++++++++++++++++++++",
"++++++++++++++++++++++++++++++++++++++++++++++++++++++++++++++++",
"++++++++++++++++++++++++++++++++++++++++++++++++++++++++++++++++",
"++++++++++++++++++++++++++++++++++++++++++++++++++++++++++++++++",
"++++++++++++++++++++++++++++++++++++++++++++++++++++++++++++++++",
"++++++++++++++++++++++++++++++++++++++++++++++++++++++++++++++++",
"++++++++++++++++++++++++++++++++++++++++++++++++++++++++++++++++",
"++++++++++++++++++++++++++++++++++++++++++++++++++++++++++++++++",
"++++++++++++++++++++++++++++++++++++++++++++++++++++++++++++++++",
"++++++++++++++++++++++++++++++++++++++++++++++++++++++++++++++++",
"++++++++++++++++++++++++++++++++++++++++++++++++++++++++++++++++",
"++++++++++++++++++++++++++++++++++++++++++++++++++++++++++++++++",
"++++++++++++++++++++++++++++++++++++++++++++++++++++++++++++++++",
"++++++++++++++++++++++++++++++++++++++++++++++++++++++++++++++++",
"++++++++++++++++++++++++++++++++++++++++++++++++++++++++++++++++",
"++++++++++++++++++++++++++++++++++++++++++++++++++++++++++++++++",
"++++++++++++++++++++++++++++++++++++++++++++++++++++++++++++++++"
};
