/* XPM */
static char *f223b23dc5ed4202a973b047263ed0f9RGs0B2VvMq7HaQfd[] = {
/* columns rows colors chars-per-pixel */
"64 64 6 1 ",
"  c None",
". c #20072A",
"X c #2B0E35",
"o c #371243",
"O c #4D2A5E",
"+ c #5F3E70",
/* pixels */
"                                                                ",
"                                                                ",
"                                                                ",
"                                                                ",
"                                                                ",
"                                                                ",
"                                                                ",
"                                                                ",
"                                                                ",
"                                                                ",
"                                                                ",
"                                                                ",
"                                                                ",
"                                                                ",
"                                                                ",
"                                                                ",
"                                                                ",
"                   oo        oo                                 ",
"                   oo        oo                                 ",
"                   OOoooo  OOXX                                 ",
"                   OOoooo  OOXX                                 ",
"                   ++OOOOooOOOOXX                               ",
"                   ++OOOOooOOOOXX                               ",
"                   ++++++OOooooXX                               ",
"                   ++++++OOooooXX                               ",
"                     ++OOOOOOOOooXX      OO                     ",
"                     ++OOOOOOOOooXX      OO                     ",
"                     OO++++++OOOOoo    XXOO                     ",
"                     OO++++++OOOOoo    XXOO                     ",
"                       ++++++++OOoo  ..XXooOO                   ",
"                       ++++++++OOoo  ..XXooOO                   ",
"                       OOOOOOOOOOOO....XXooooOO                 ",
"                       OOOOOOOOOOOO....XXooooOO                 ",
"                     OOOO++++++++OOOOXXooooooOOOO               ",
"                     OOOO++++++++OOOOXXooooooOOOO               ",
"               ++++++++++++++++OOOOOO..XXooooooOO               ",
"               ++++++++++++++++OOOOOO..XXooooooOO               ",
"               ....OOOO++++OOXXXXXXXXXX..XXXXOO                 ",
"               ....OOOO++++OOXXXXXXXXXX..XXXXOO                 ",
"                 ......XXXXXXooooooooooXX                       ",
"                 ......XXXXXXooooooooooXX                       ",
"                   ..XXooooooooooooooXX                         ",
"                   ..XXooooooooooooooXX                         ",
"                       XXXXoooooooooo                           ",
"                       XXXXoooooooooo                           ",
"                           XXXXXXoo                             ",
"                           XXXXXXoo                             ",
"                                                                ",
"                                                                ",
"                                                                ",
"                                                                ",
"                                                                ",
"                                                                ",
"                                                                ",
"                                                                ",
"                                                                ",
"                                                                ",
"                                                                ",
"                                                                ",
"                                                                ",
"                                                                ",
"                                                                ",
"                                                                ",
"                                                                "
};
