/* XPM */
static char *result[] = {
/* columns rows colors chars-per-pixel */
"22 22 64 1 ",
"  c #713A22",
". c #6C3821",
"X c #67351F",
"o c #66341E",
"O c #63331E",
"+ c #62321D",
"@ c #64331E",
"# c #66351F",
"$ c #65341E",
"% c #6B3720",
"& c #5A2F1B",
"* c #572D1A",
"= c #532B19",
"- c #512917",
"; c #502917",
": c #522A18",
"> c #582E1A",
", c #552C19",
"< c #64341E",
"1 c #552C1A",
"2 c #512A18",
"3 c #542B19",
"4 c #562C1A",
"5 c #5B2F1B",
"6 c #5A2E1B",
"7 c #542C19",
"8 c #4F2816",
"9 c #68361F",
"0 c #5E311C",
"q c #5C301C",
"w c #5D301C",
"e c #592E1B",
"r c #562C19",
"t c #69361F",
"y c #5F311C",
"u c #5C2F1B",
"i c #68351F",
"p c #60321D",
"a c #5C301B",
"s c #5F311D",
"d c #693620",
"f c #582D1A",
"g c #8D561E",
"h c #935C1E",
"j c #64361C",
"k c #68391D",
"l c #78451E",
"z c #BC7D20",
"x c #BD7E1F",
"c c #66381B",
"v c #84501D",
"b c #CB8920",
"n c #DA9521",
"m c #BC7D1F",
"M c #61361A",
"N c #72431B",
"B c #A1691D",
"V c #A0681C",
"C c #8A561B",
"Z c #582F18",
"A c #63331D",
"S c #502816",
"D c #592E1A",
"F c #562D1A",
/* pixels */
"                      ",
" .XXoOOOO++OO@#XX$OO% ",
" X&&*====-;:==>&&,==O ",
" <11=;;;;2:;;-311:;;+ ",
" $443;;;;=,2;-2::-;;+ ",
" X55>====*67==;88:==O ",
" 900q>>>>5we>*=::r>>o ",
" tyy0qqqq00wqu*116qqi ",
" X55wppppwaspsu&&0ppd ",
" $**ewwww6fqww000ghj9 ",
" O::,6666r3>6&0klzxc# ",
" +;;27777:-371&vbnmM< ",
" +---2222--22:rNBVCZA ",
" @33:8888:=;8S:==-88+ ",
" #DDF::::rf=::-;;2::O ",
" iww&44446u*4,:;;344$ ",
" dpp055550sa5&1==>55X ",
" iwww0000ww0006>>q009 ",
" #DD5yyyy5&0y0wqq0yyt ",
" @33*5555*1&5u0ppw55X ",
" %OO$XXXX$<#XXtdd9XX. ",
"                      "
};
