/* XPM */
static char *result[] = {
/* columns rows colors chars-per-pixel */
"64 64 11 1 ",
"  c #300F0A",
". c #550F0A",
"X c #A02018",
"o c #CF4521",
"O c #DF7E27",
"+ c #AD5B40",
"@ c #F0D71E",
"# c #E3936B",
"$ c #F5C187",
"% c #F5DDA6",
"& c None",
/* pixels */
"&&&&&&&&&&&&&&&&&&&&&&&&&&&&&&&&&&&&&&&&&&&&&&&&&&&&&&&&&&&&&&&&",
"&&&&&&&&&&&&&&&&&&&&&&&&&&&&&&&&&&&&&&&&&&&&&&&&&&&&&&&&&&&&&&&&",
"&&&&&&&&&&&&&&&&&&&&&&&&&&&&&&&&&&&&&&&&&&&&&&&&&&&&&&&&&&&&&&&&",
"&&&&&&&&&&&&&&&&&&&&&&&&&&&&&&&&&&&&&&&&&&&&&&&&&&&&&&&&&&&&&&&&",
"&&&&&&&&&&&&&&&&&&&&&&&&&&&&&&&&&&&&&&&&&&&&&&&&&&&&&&&&&&&&&&&&",
"&&&&&&&&&&&&&&&&&&&&&&&&&&&&&&&&&&&&&&&&&&&&&&&&&&&&&&&&&&&&&&&&",
"&&&&&&&&&&&&&&&&&&&&&&&&&&&&&&&&&&&&&&&&&&&&&&&&&&&&&&&&&&&&&&&&",
"&&&&&&&&&&&&&&&&&&&&&&&&&&&&&&&&&&&&&&&&&&&&&&&&&&&&&&&&&&&&&&&&",
"&&&&&&&&&&&&&&&&&&&&&&&&&&&&&&&&&&&&&&&&&&&&&&&&&&&&&&&&&&&&&&&&",
"&&&&&&&&&&&&&&&&&&&&&&&&&&&&&&&&&&&&&&&&&&&&&&&&&&&&&&&&&&&&&&&&",
"&&&&&&&&&&&&      &&&&&&&&&&&&&&&&&&&&&&&&&&&&&&&&&&&&&&&&&&&&&&",
"&&&&&&&&&&&        &&&&&&&&&&&&&&&&&&&&&&&&&&&&&&&&&&&&&&&&&&&&&",
"&&&&&&&&&&&        &&&&&&&&&&&&&&&&&&&&&&&&&&&&&&&&&&&&&&&&&&&&&",
"&&&&&&&&&&&& ####  &&&&&&&&&&&&&&&&&&&&&&&&&&&&&&&&&&&&&&&&&&&&&",
"&&&&&&&&&&&&&+#++ #&&&&&&&&&&&&&&&&&&&&&&&&&&&&&&&&&&&&&&&&&&&&&",
"&&&&&&&&&&&&&%%%% #&&&&&&&&&&&&&&&&&&&&&&&&&&&&&&&&&&&&&&&&&&&&&",
"&&&&&&&&&&&&&   %#&&&&&&&&&&&&&&&&&&&&&&&&&&&&&&&&&&&&&&&&&&&&&&",
"&&&&&&&&&&&&&   +#&&oooX&&&&&&&&&&&&&&&&&&&&&&&&&&&&&&&&&&&&&&&&",
"&&&&&oooooXXO++++#OXXoooX&&&&&&&&&&&&&&&&&&&&&&&&&&&&&&&&&&&&&&&",
"&&&&ooooooXOO@@OOO@@OXooXX&&&&&&&&&&&&&&&&&&&&&&&&&&&&&&&&&&&&&&",
"&&&XXXooooX@XXX@@@@XXOXXXO&&&&&&&&&&&&&&&&&&&&&&&&&&&&&&&&&&&&&&",
"&&&OO@XXoooX@XXXXXXooX@@O.&&&&&&&&&&&&&&&&&&&&&&&&&&&&&&&&&&&&&&",
"&&&   @@XXXX@XoooooooX  .+&&&&&&&&&&&&&&&&&&&&&&&&&&&&&&&&&&&&&&",
"&&&&    @@@OOXoooooooX+++#&&&&&&&&&&&&&&&&&&&&&&&&&&&&&&&&&&&&&&",
"&&&&&+++  ...XXoooooXX#%%#&&&&&&&&&&&&&&&&&&&&&&&&&&&&&&&&&&&&&&",
"&&&&&&##%%%...XXXXXXX.&%%#&&&&&&&&&&&&&&&&&&&&&&&&&&&&&&&&&&&&&&",
"&&&&&&&#%%%%..........&%%#&&&&&&&&&&&&&&&&&&&&&&&&&&&&&&&&&&&&&&",
"&&&&&&&&#%%##XXXXXXXX&&.. &&&&&&&&&&&&&&&&&&&&&&&&&&&&&&&&&&&&&&",
"&&&&&&&&&##....oooooX&&.. &&&&&&&&&&&&&&&&&&&&&&&&&&&&&&&&&&&&&&",
"&&&&&&&&&&X ....oooX&&... &&&&&&&&&&&&&&&&&&&&&&&&&&&&&&&&&&&&&&",
"&&&&&&&&&&XX  ....XX&&.. &&&&&&&&&&&&&&&&&&&&&&&&&&&&&&&&&&&&&&&",
"&&&&&&&&&&O@@X  ..%%&&.. &&..&&&&&&&&&&&&&&&&&&&&&&&&&&&&&&&&&&&",
"&&&&&&&&&....OOO  %%.###&&...&&&&&&&&&&&&&&&&&&&&&&&&&&&&&&&&&&&",
"&&&&&&&&XXXX. OXXO#%.%%%&.. &&&&&&&&&&&&&&&&&&&&&&&&&&&&&&&&&&&&",
"&&&&&&&oooXX. @XXO #.##+...   &&&&&&&&&&&&&&&&&&&&&&&&&&&&&&&&&&",
"&&&&&&O@@ooXX @XXO ..++...o     &&&&&&&&&&&&&&&&&&&&&&&&&&&&&&&&",
"&&&&&&   @ooX @XX@ .XXX..   o     &&&&&&&&&&&&&&&&&&&&&&&&&&&&&&",
"&&&&&..   OoX @XX@ XXX...     o     &&&&&&&&&&&&&&&&&&&&&&&&&&&&",
"&&&&XXX.   OO OXX@ XX...$             &&&&&&&&&&&&&&&&&&&&&&&&&&",
"&&&&XX..     &OXX@& X..OO$$             &&&&&&&&&&&&&&&&&&&&&&&&",
"&&&&...   &&&&OXXO&&@@  .. $$             &&&&&&&&&&&&&&&&&&&&&&",
"&&&&   . &&&&&OXXO&&&  XXX. &$$             &&&&&&&&&&&&&&&&&&&&",
"&&&&&... &&&&&OXXO&&&  XX.. &&&$$             &&&&&&&&&&&&&&&&&&",
"&&&&&.. &&&&&&OXXO&&&& ...  &&&&&$$             &&&&&&&&&&&&&&&&",
"&&&&&&. &&&&&&@XXO&&&&&     &&&&&&&$$             &&&&&&&&&&&&&&",
"&&&&&&. &&&&&&&@O&&&&&&&... &&&&&&&&&$$             &&&&&&&&&&&&",
"&&&&&&.. &&&&&&&&&&&&&&&... &&&&&&&&&&&$$             &&&&&&&&&&",
"&&&&&... &&&&&&&&&&&&&&&&... &&&&&&&&&&&&$$             &&&&&&&&",
"&&&&&XXX &&&&&&&&&&&&&&&&&.. &&&&&&&&&&&&&&$$             &&&&&&",
"&&&&&XX. &&&&&&&&&&&&&&&&&.. &&&&&&&&&&&&&&&&$$             &&&&",
"&&&&&XX &&&&&&&&&&&&&&&&&&.. &&&&&&&&&&&&&&&&&&$$           $&&&",
"&&&&&.. &&&&&&&&&&&&&&&&&&... &&&&&&&&&&&&&&&&&&&$$$     $$$&&&&",
"&&&&&&&&&&&&&&&&&&&&&&&&&XXX. &&&&&&&&&&&&&&&&&&&&&&$$$$$&&&&&&&",
"&&&&&&&&&&&&&&&&&&&&&&&&...   &&&&&&&&&&&&&&&&&&&&&&&&&&&&&&&&&&",
"&&&&&&&&&&&&&&&&&&&&&&&&&&&&&&&&&&&&&&&&&&&&&&&&&&&&&&&&&&&&&&&&",
"&&&&&&&&&&&&&&&&&&&&&&&&&&&&&&&&&&&&&&&&&&&&&&&&&&&&&&&&&&&&&&&&",
"&&&&&&&&&&&&&&&&&&&&&&&&&&&&&&&&&&&&&&&&&&&&&&&&&&&&&&&&&&&&&&&&",
"&&&&&&&&&&&&&&&&&&&&&&&&&&&&&&&&&&&&&&&&&&&&&&&&&&&&&&&&&&&&&&&&",
"&&&&&&&&&&&&&&&&&&&&&&&&&&&&&&&&&&&&&&&&&&&&&&&&&&&&&&&&&&&&&&&&",
"&&&&&&&&&&&&&&&&&&&&&&&&&&&&&&&&&&&&&&&&&&&&&&&&&&&&&&&&&&&&&&&&",
"&&&&&&&&&&&&&&&&&&&&&&&&&&&&&&&&&&&&&&&&&&&&&&&&&&&&&&&&&&&&&&&&",
"&&&&&&&&&&&&&&&&&&&&&&&&&&&&&&&&&&&&&&&&&&&&&&&&&&&&&&&&&&&&&&&&",
"&&&&&&&&&&&&&&&&&&&&&&&&&&&&&&&&&&&&&&&&&&&&&&&&&&&&&&&&&&&&&&&&",
"&&&&&&&&&&&&&&&&&&&&&&&&&&&&&&&&&&&&&&&&&&&&&&&&&&&&&&&&&&&&&&&&"
};
