/* XPM */
static char *result[] = {
/* columns rows colors chars-per-pixel */
"64 64 22 1 ",
"  c #494949",
". c gray30",
"X c #565655",
"o c #5E5E5D",
"O c #656564",
"+ c #696967",
"@ c #656563",
"# c #5E5E5C",
"$ c #5A5A59",
"% c #4E4E4E",
"& c #595958",
"* c #60605E",
"= c #636362",
"- c #626261",
"; c #5D5D5C",
": c #505050",
"> c #5B5B5A",
", c #515151",
"< c #616160",
"1 c #575756",
"2 c gray31",
"3 c #4B4B4B",
/* pixels */
" .XoO++++++++++++++++++++++++++++++++++@#$$$$oO++@#$$oO@#$$$$$$$",
" %&*=@@@@@@@@@@@@@@@@@@@@@@@@@@@@@@@@@@-;$$$$;-@@-;$$;--;$$$$$$$",
" :o=*##################################;>$$$$>;##;>$$>;;>$$$$$$$",
" ,<@#$$$$$$$$$$$$$$$$$$$$$$$$$$$$$$$$$$$$$$$$$$$$$$$$$$$$$$$$$$$",
" ,<@#$$$$$$$$$$$$$$$$$$$$$$$$$$$$$$$$$$$$$$$$$$$$$$$$$$$$$$$$$$$",
" ,<@#$$$$$$$$$$$$$$$$$$$$$$$$$$$$$$$$$$$$$$$$$$$$$$$$$$$$$$$$$$$",
" ,<@#$$$$$$$$$$$$$$$$$$$$$$$$$$$$$$$$$$$$$$$$$$$$$$$$$$$$$$$$$$$",
" ,<@#$$$$$$$$$$$$$$$$$$$$$$$$$$$$$$$$$$$$$$$$$$$$$$$$$$$$$$$$$$$",
" ,<@#$$$$$$$$$$$$$$$$$$$$$$$$$$$$$$$$$$$$$$$$$$$$$$$$$$$$$$$$$$$",
" ,<@#$$$$$$$$$$$$$$$$$$$$$$$$$$$$$$$$$$$$$$$$$$$$$$$$$$$$$$$$$$$",
" ,<@#$$$$$$$$$$$$$$$$$$$$$$$$$$$$$$$$$$$$$$$$$$$$$$$$$$$$$$$$$$$",
" ,<@#$$$$$$$$$$$$$$$$&11&$$$$$$$$$$$$$$$$$$$$$$$$$$$$$$$$$$$$$$$",
" ,<@#$$$$$$$$$$$$$$$$1::1$$$$$$$$$$$$$$$$$$$$$$$$$$$$$$$$$$$$$$$",
" ,<@#$$$$$$$$$$$$$$$$1::1$$$$$$$$$$$$$$$$$$&1XXXX1&$$$$$$$$$$$$$",
" ,<@#$$$$$$$$$$$$$$$$&11&$$$$$$$$$$$$$$$$$$1:....:1$$$$$$$$$$$$$",
" ,<@#$$$$$$$$$$$$$$$$$$$$$$$$$$$$$$$$$$$$$$X.    .X$$$$$$$$$$$$$",
" ,<@#$$$$$$$$$$$$$$$$$$$$$$$$$$$$$$$$$$$$$$X.    .X$$$$$$$$$$$$$",
" ,<@#$$$$$$$$$$$$$$$$$$$$$$$$$$$$$$$$$$$$$$1:....:1$$$$$$$$$$$$$",
" ,<@#$$$$$$$$$$$$$$$$$$$$$$$$$$$$$$$$$$$$$$&1XXXX1&$$$$$$$$$$$$$",
" ,<@#$$$$$$$$$$$$$$$$$$$$$$$$$$$$$$$$$$$$$$$$$$$$$$$$$$$$$$$$$$$",
" ,<@#$$$$$$$$$$$$$$$$$$$$$$$$$$$$$$$$$$$$$$$$$$$$$$$$$$$$$$$$$$$",
" ,<@#$$$$$$$$$$$$$$$$$$$$$$$$$$$$$$$$$$$$$$$$$$$$$$$$$$$$$$$$$$$",
" ,<@#$$$$$$$$$$$$$$$$$$$$$$$$$$$$$$$$$$$$$$$$$$$$$$$$$$$$$$$$$$$",
" ,<@#$$$$$$$$$$$$$$$$$$$$$$$$$$$$$$$$$$$$$$$$$$$$$$$$$$$$$$$$$$$",
" ,<@#$$$$$$$$$$$$$$$$$$$$$$$$$$$$$$$$$$$$$$$$$$$$$$$$$$$$$$$$$$$",
" ,<@#$$$$$$$$$$$$$$$$$$$$$$$$$$$$$$$$$$$$$$$$$$$$$$$$$$$$$$$$$$$",
" ,<@#$$$$$$$$$$$$$$$$$$$$$$$$$$$$$$$$$$$$$$$$$$$$$$$$$$$$$$$$$$$",
" ,<@#$$$$$$$$$$$$$$$$$$$$$$$$$$$$$$$$$$$$$$$$$$$$$$$$$$$$$$$$$$$",
" ,<@#$$$$$$$$$$$$$$$$$$$$$$$$$$$$$$$$$$$$$$$$$$$$$$$$$$$$$$$$$$$",
" ,<@#$$$$$$$$$$$$$$$$$$$$$$$$$$$$$$$$$$$$$$$$$$$$$$$$$$$$$$$$$$$",
" ,<@#$$$$$$$$$$$$$$$$$$$$$$$$$$$$$$$$$$$$$$$$$$$$$$$$$$$$$$$$$$$",
" ,<@#$$$$$$$$$$$$&11&$$$$$$$$$$$$$$$$$$$$$$$$$$$$$$$$$$$$$$$$$$$",
" ,<@#$$$$$$$$$$$$1::1$$$$$$$$$$$$$$$$$$$$$$$$$$$$$$$$$$$$$$$$$$$",
" ,<@#$$$$$$$$$$$$1::1$$$$$$$$$$$$$$$$$$$$$$$$$$$$$$$$$$$$$$$$$$$",
" ,<@#$$$$$$$$$$$$&11&$$$$$$$$$$$$$$$$$$$$$$$$$$$$$$$$$$$$$$$$$$$",
" ,<@#$$$$$$$$$$$$$$$$$$$$$$$$$$$$$$$$$$$$$$$$$$$$$$$$$$$$$$$$$$$",
" ,<@#$$$$$$$$$$$$$$$$$$$$$$$$$$$$$$$$$$$$$$$$$$$$$$$$$$$$$$$$$$$",
" ,<@#$$$$$$$$$$$$$$$$$$$$$$$$$$$$$$$$$$$$$$$$$$$$$$$$$$$$$$$$$$$",
" ,<@#$$$$$$$$$$$$$$$$$$$$$$$$$$$$$$$$$$$$$$$$$$$$$$$$$$$$$$$$$$$",
" ,<@#$$$$$$$$$$$$$$$$$$$$$$$$$$$$$$$$$$$$$$$$$$$$$$$$$$$$$$$$$$$",
" ,<@#$$$$$$$$$$$$$$$$$$$$$$$$$$$$$$$$$$$$$$$$$$$$$$$$$$$$$$$$$$$",
" ,<@#$$$$$$$$$$$$$$$$$$$$$$$$$$$$$$$$$$$$$$$$$$$$$$$$$$$$$$$$$$$",
" ,<@#$$$$$$$$$$$$$$$$$$$$$$$$$$$$$$$$$$$$$$$$$$$$$$$$$$$$$$$$$$$",
" ,<@#$$$$$$$$$$$$$$$$$$$$$$$$$$$$$$$$$$$$$$$$$$$$$$$$$$$$$$$$$$$",
" ,<@#$$$$$$$$$$$$$$$$$$$$$$$$$$$$$$$$$$$$$$$$$$$$$$$$$$$$$$$$$$$",
" ,<@#$$$$$$$$$$$$$$$$$$$$$$$$$$$$$$&1XX1&$$$$$$$$$$$$$$$$$$$$$$$",
" ,<@#$$$$$$$$$$$$$$$$$$$$$$$$$$$$$$1:..:1$$$$$$$$$$$$$$$$$$$$$$$",
" ,<@#$$$$$$$$$$$$$$$$$$$$$$$$$$$$$$X.  .X$$$$$$$$$$$$$$$$$$$$$$$",
" ,<@#$$$$$$$$$$$$$$$$$$$$$$$$$$$$$$X.  .X$$$$$$$$$$$$$$$$$$$$$$$",
" ,<@#$$$$$$$$$$$$$$$$$$$$$$$$$$$$$$1:..:1$$$$$$$$$$$$$$$$$$$$$$$",
" ,<@#$$$$$$$$$$$$$$$$$$$$$$$$$$$$$$&1XX1&$$$$$$$$$$$$$$$$$$$$$$$",
" ,<@#$$$$$$$$$$$$$$$$$$$$$$$$$$$$$$$$$$$$$$$$$$$$$$$$$$$$$$$$$$$",
" ,<@#$$$$$$$$$$$$$$$$$$$$$$$$$$$$$$$$$$$$$$$$$$$$$$$$$$$$$$$$$$$",
" ,<@#$$$$$$$$$$$$$$$$$$$$$$$$$$$$$$$$$$$$$$$$$$$$$$$$$$$$$$$$$$$",
" ,<@#$$$$$$$$$$$$$$$$$$$$$$$$$$$$$$$$$$$$$$$$$$$$$$$$$$$$$$$$$$$",
" ,<@#$$$$$$$$$$$$$$$$$$$$$$$$$$$$$$$$$$$$$$$$$$$$$$$$$$$$$$$$$$$",
" ,<@#$$$$$$$$$$$$$$$$$$$$$$$$$$$$$$$$$$$$$$$$$$$$$$$$$$$$$$$$$$$",
" ,<@#$$$$$$$$$$$$$$$$$$$$$$$$$$$$$$$$$$$$$$$$$$$$$$$$$$$$$$$$$$$",
" ,<@#$$$$$$$$$$$$$$$$$$$$$$$$$$$$$$$$$$$$$$$$$$$$$$$$$$$$$$$$$$$",
" ,<@#$$$$$$$$$$$$$$$$$$$$$$$$$$$$$$$$$$$$$$$$$$$$$$$$$$$$$$$$$$$",
" ,<@#$$$$$$$$$$$$$$$$$$$$$$$$$$$$$$$$$$$$$$$$$$$$$$$$$$$$$$$$$$$",
" 2>o&XXXXXXXXXXXXXXXXXXXXXXXXXXXXXXXXXXXXXXXXXXXXXXXXXXXXXXXXXXX",
" 32:%...........................................................",
"                                                                "
};
